<?xml version="1.0" standalone="no"?>
<!DOCTYPE svg PUBLIC "-//W3C//DTD SVG 20010904//EN"
 "http://www.w3.org/TR/2001/REC-SVG-20010904/DTD/svg10.dtd">
<svg version="1.0" xmlns="http://www.w3.org/2000/svg"
 width="640.000000pt" height="640.000000pt" viewBox="0 0 640.000000 640.000000"
 preserveAspectRatio="xMidYMid meet">
<metadata>
Created by potrace 1.14, written by Peter Selinger 2001-2017
</metadata>
<g transform="translate(0.000000,640.000000) scale(0.100000,-0.100000)"
fill="#000000" stroke="none">
<path d="M1907 6205 c9 -19 20 -35 25 -35 4 0 8 -5 8 -11 0 -6 16 -38 36 -72
20 -34 45 -75 54 -92 10 -16 41 -70 69 -118 28 -49 51 -92 51 -97 0 -5 4 -10
8 -12 5 -1 22 -28 38 -58 17 -30 40 -71 51 -90 86 -147 129 -221 151 -260 14
-25 33 -57 43 -72 11 -14 19 -29 19 -32 0 -4 20 -39 44 -79 24 -39 77 -130
118 -202 41 -71 101 -175 133 -230 32 -55 66 -113 75 -130 64 -111 251 -432
257 -441 4 -5 16 -26 27 -45 33 -60 58 -103 71 -123 13 -17 14 -16 29 13 9 17
16 34 15 37 0 4 3 10 9 13 5 3 20 26 34 51 14 25 52 90 84 145 33 55 63 107
67 115 4 8 15 29 26 45 10 17 27 46 38 65 55 96 84 146 93 160 5 8 37 64 72
124 35 60 73 125 84 145 12 20 43 74 70 121 26 47 51 87 56 88 4 2 8 8 8 14 0
5 36 70 80 145 44 74 80 139 80 143 0 5 6 15 13 22 6 7 19 27 27 43 8 17 17
32 21 35 3 3 18 28 33 55 44 79 68 120 161 280 48 83 99 170 113 195 14 25 35
61 47 80 12 19 30 50 39 68 l17 32 -1306 0 -1305 0 17 -35z"/>
<path d="M781 5383 c-12 -38 -23 -75 -24 -83 -2 -8 -5 -19 -9 -25 -3 -5 -52
-152 -108 -325 -56 -173 -122 -376 -147 -450 -25 -74 -46 -139 -47 -145 -1 -5
-17 -55 -35 -110 -18 -55 -34 -104 -36 -110 -1 -5 -5 -17 -8 -25 -7 -19 -71
-213 -72 -220 -2 -13 -97 -308 -105 -325 -10 -22 -73 -221 -80 -250 -1 -5 -13
-38 -26 -72 -13 -35 -21 -63 -18 -63 2 0 -2 -13 -11 -30 -8 -16 -15 -32 -15
-35 0 -3 0 -6 -1 -7 0 -2 -2 -10 -4 -18 -2 -8 -11 -37 -19 -63 -14 -45 -14
-48 2 -43 19 6 104 25 142 32 14 3 77 16 140 30 63 14 126 27 140 29 14 3 45
9 70 16 25 6 54 12 65 14 11 1 61 12 110 23 50 12 106 24 125 27 19 3 53 11
75 16 22 6 49 12 60 14 32 5 64 12 169 35 54 12 108 23 120 26 11 2 32 6 46 9
14 3 34 7 45 9 11 3 94 21 185 40 91 20 178 39 194 42 16 2 32 6 35 8 3 2 23
7 43 10 21 3 59 11 85 17 49 11 308 66 353 75 80 16 308 66 324 71 18 5 18 6
-5 19 -13 7 -20 13 -15 14 5 0 0 8 -10 18 -10 9 -39 40 -64 67 -69 78 -210
233 -256 281 -22 24 -63 69 -90 101 -27 31 -60 68 -74 83 -14 15 -56 62 -95
104 -38 43 -81 90 -95 105 -47 50 -178 196 -197 217 -10 12 -56 63 -103 114
-100 110 -111 122 -169 186 -24 27 -77 85 -117 129 -40 44 -82 91 -94 105 -12
14 -54 60 -93 103 -132 143 -142 154 -196 216 -30 33 -57 61 -61 61 -4 0 -17
-30 -29 -67z"/>
<path d="M5555 5417 c-16 -18 -68 -75 -115 -126 -47 -52 -101 -111 -120 -132
-19 -20 -64 -70 -100 -109 -36 -40 -80 -89 -99 -109 -56 -60 -178 -195 -198
-217 -30 -35 -176 -195 -203 -223 -14 -14 -65 -71 -115 -126 -49 -55 -94 -105
-100 -111 -24 -26 -191 -208 -205 -224 -8 -10 -51 -57 -95 -105 -44 -48 -91
-100 -105 -115 -106 -117 -191 -209 -222 -244 -43 -45 -45 -51 -20 -53 9 0 28
-4 42 -7 14 -4 45 -11 70 -16 25 -5 88 -19 140 -30 52 -11 104 -22 115 -24 11
-3 74 -16 140 -31 66 -14 134 -28 150 -31 26 -5 263 -55 395 -85 49 -10 81
-17 120 -25 14 -3 68 -15 120 -26 52 -11 105 -22 117 -23 11 -2 30 -6 41 -9
20 -7 43 -12 94 -21 16 -3 56 -12 90 -20 35 -8 74 -16 88 -19 54 -10 128 -26
195 -41 39 -9 84 -18 100 -21 17 -3 82 -17 145 -31 63 -14 124 -27 135 -29 34
-5 76 -14 157 -33 42 -10 79 -16 82 -14 3 3 1 15 -4 26 -10 25 -183 557 -186
572 -1 6 -25 80 -54 165 -28 85 -53 162 -55 170 -2 8 -29 92 -60 185 -31 94
-59 181 -61 195 -3 13 -10 30 -16 37 -6 7 -8 13 -5 13 3 0 -1 17 -9 37 -9 20
-17 44 -19 52 -2 9 -33 108 -70 221 -37 113 -99 302 -137 420 -39 118 -82 250
-95 293 -14 42 -28 77 -32 77 -3 0 -19 -15 -36 -33z"/>
<path d="M2770 2762 c0 -5 -6 -9 -12 -9 -14 0 -96 -34 -138 -58 -14 -7 -28
-14 -32 -14 -12 -2 -71 -28 -246 -107 -29 -13 -54 -24 -57 -24 -2 0 -32 -13
-67 -29 -35 -16 -110 -50 -168 -76 -58 -26 -121 -54 -140 -63 -19 -9 -37 -16
-40 -17 -3 0 -131 -56 -285 -124 -154 -68 -300 -133 -325 -143 -25 -11 -73
-33 -108 -49 -35 -16 -65 -29 -67 -29 -3 0 -33 -13 -67 -29 -35 -15 -173 -76
-308 -135 -135 -59 -255 -113 -267 -119 -26 -12 -30 -27 -9 -27 8 0 16 -4 18
-8 1 -5 37 -33 78 -63 41 -29 80 -57 85 -61 6 -5 51 -38 100 -73 50 -36 98
-72 107 -79 9 -8 27 -20 40 -27 13 -6 25 -15 28 -18 4 -6 218 -163 273 -201
12 -8 140 -100 284 -205 144 -104 271 -197 283 -205 12 -8 34 -24 48 -35 24
-18 192 -140 242 -175 21 -15 260 -188 350 -254 25 -18 61 -43 80 -57 19 -13
41 -29 48 -36 19 -18 31 -16 31 5 0 9 2 31 5 47 3 17 8 64 11 105 3 41 8 91
11 110 3 19 7 55 9 80 7 78 15 152 20 184 2 17 7 58 11 91 3 33 7 71 9 85 1
14 5 57 9 95 4 39 9 86 11 105 2 19 7 60 10 90 3 30 8 71 10 90 2 19 6 64 10
100 3 36 8 81 11 100 2 19 6 58 9 85 2 28 6 68 9 90 3 22 8 67 11 100 3 33 8
78 11 100 7 57 13 110 19 185 3 36 7 79 10 95 6 44 20 178 30 285 3 30 7 71
10 90 2 19 7 60 10 90 3 30 8 76 11 103 5 39 3 47 -10 47 -9 0 -16 -4 -16 -8z"/>
<path d="M3605 2710 c3 -33 7 -80 10 -103 3 -23 8 -64 10 -92 6 -58 15 -149
19 -185 2 -14 7 -63 11 -110 4 -47 9 -94 11 -104 2 -11 6 -48 9 -83 3 -35 7
-78 10 -96 2 -18 7 -63 11 -102 3 -38 7 -81 9 -95 8 -74 17 -170 20 -205 2
-22 6 -65 10 -95 3 -30 8 -73 10 -95 2 -22 6 -62 9 -90 11 -98 18 -170 21
-200 9 -98 17 -173 20 -195 3 -14 7 -60 10 -102 4 -43 8 -88 11 -100 2 -13 7
-54 10 -93 5 -71 7 -92 18 -180 10 -81 17 -148 16 -172 0 -21 9 -16 88 40 48
35 177 128 287 207 110 79 202 147 203 152 2 4 8 8 14 8 5 0 35 19 66 43 128
98 212 157 222 157 5 0 10 5 10 10 0 6 5 10 11 10 7 0 17 6 23 13 6 8 95 74
199 148 279 199 280 200 582 417 154 111 287 208 296 217 9 8 21 15 27 15 7 0
12 3 12 8 0 4 18 18 40 32 36 22 48 44 24 46 -5 0 -29 9 -54 21 -25 11 -67 31
-95 43 -27 12 -68 30 -90 40 -22 10 -175 77 -340 150 -165 72 -314 137 -330
145 -17 7 -50 22 -75 33 -43 18 -70 31 -185 82 -27 12 -86 38 -130 57 -44 20
-108 48 -143 64 -35 16 -65 29 -67 29 -2 0 -32 13 -67 29 -35 16 -193 86 -353
156 -159 69 -318 140 -353 156 -35 16 -67 29 -72 29 -5 0 -7 -27 -5 -60z"/>
</g>
</svg>
